<?xml version="1.0" encoding="utf-8"?>
<!-- Generator: Adobe Illustrator 26.3.1, SVG Export Plug-In . SVG Version: 6.00 Build 0)  -->
<svg version="1.1" id="Laag_1" xmlns="http://www.w3.org/2000/svg" xmlns:xlink="http://www.w3.org/1999/xlink" x="0px" y="0px"
	 viewBox="0 0 100 100" style="enable-background:new 0 0 100 100;" xml:space="preserve">
<style type="text/css">
	.st0{fill:#809F36;stroke:#809F36;stroke-width:2;stroke-miterlimit:10;}
</style>
<g>
	<path class="st0" d="M43.4,20.2c-3.3,0-6.4,1.5-8.5,4c0,0,0,0,0,0L5,60.8v0c-0.6,0.6-1.1,1.2-1.5,1.9h0c0,0.1-0.1,0.1-0.1,0.2
		c-1.1,1.7-1.7,3.7-1.7,5.9c0,6.1,5,11.1,11.1,11.1h0v0h0h54.5c0.4,0,0.8-0.2,0.9-0.6l29.5-37.1h0v0c0.2-0.2,0.3-0.6,0.2-0.9
		c-0.1-0.3-0.4-0.5-0.8-0.5H50l1.6-1.9c0.1-0.1,0.1-0.2,0.2-0.3c1.7-2,2.7-4.5,2.7-7.1C54.4,25.2,49.5,20.2,43.4,20.2L43.4,20.2z
		 M43.4,21.9c5.2,0,9.4,4.2,9.4,9.4c0,2.3-0.9,4.6-2.5,6.3c0,0.1-0.1,0.1-0.1,0.2l-2.4,3h0c-0.1,0.1-0.3,0.2-0.3,0.4L23.7,70
		c0-0.4,0.1-0.8,0.1-1.3c0-6.1-5-11.1-11.1-11.1c-1.2,0-2.3,0.2-3.4,0.5l26.8-32.9C37.9,23.2,40.6,21.9,43.4,21.9L43.4,21.9z
		 M48.6,42.3h46.6L66.8,78.1l-48.2,0c1.3-0.8,2.5-2,3.4-3.3l0,0L48.6,42.3z M12.7,59.4L12.7,59.4c1,0,1.9,0.1,2.8,0.4
		c1.5,0.5,2.8,1.3,3.8,2.3c0.2,0.2,0.4,0.4,0.6,0.7c0.2,0.2,0.4,0.5,0.5,0.7c0.3,0.5,0.6,1,0.9,1.6c0.2,0.6,0.4,1.1,0.5,1.8
		c0.1,0.3,0.1,0.6,0.1,0.9c0,0.3,0.1,0.6,0.1,1c0,0.4,0,0.8-0.1,1.2c0,0.1,0,0.1,0,0.2c-0.1,0.4-0.1,0.8-0.3,1.2
		c-0.1,0.4-0.3,0.8-0.5,1.2c-0.2,0.4-0.4,0.8-0.6,1.2v0c0,0,0,0.1-0.1,0.1c-1.7,2.5-4.5,4.2-7.8,4.2c-5.2,0-9.4-4.2-9.4-9.4
		c0-1.8,0.5-3.5,1.4-5c0,0,0,0,0,0c0,0,0,0,0,0c0-0.1,0.1-0.1,0.1-0.2v0c0.4-0.5,0.8-1,1.2-1.5c0,0,0,0,0,0c0,0,0.1-0.1,0.1-0.1
		c0.2-0.2,0.4-0.4,0.6-0.5c0,0,0,0,0,0c0.2-0.2,0.5-0.3,0.7-0.5c0,0,0,0,0,0c0.2-0.2,0.5-0.3,0.8-0.4s0.5-0.3,0.8-0.4c0,0,0,0,0.1,0
		c0.3-0.1,0.5-0.2,0.8-0.3c0.3-0.1,0.6-0.2,0.8-0.2c0.2,0,0.5-0.1,0.7-0.1c0,0,0.1,0,0.1,0h0C12.1,59.4,12.4,59.3,12.7,59.4
		L12.7,59.4z"/>
	<path class="st0" d="M12.7,64.5c-2.3,0-4.3,1.9-4.3,4.3c0,2.3,1.9,4.3,4.3,4.3c2.3,0,4.3-1.9,4.3-4.3C17,66.4,15.1,64.5,12.7,64.5z
		 M12.7,66.2c1.4,0,2.5,1.1,2.5,2.5c0,1.4-1.1,2.5-2.5,2.5c-1.4,0-2.5-1.1-2.5-2.5C10.2,67.3,11.3,66.2,12.7,66.2z"/>
</g>
</svg>
