<?xml version="1.0" encoding="utf-8"?>
<!-- Generator: Adobe Illustrator 26.3.1, SVG Export Plug-In . SVG Version: 6.00 Build 0)  -->
<svg version="1.1" id="Laag_1" xmlns="http://www.w3.org/2000/svg" xmlns:xlink="http://www.w3.org/1999/xlink" x="0px" y="0px"
	 viewBox="0 0 50 50" style="enable-background:new 0 0 50 50;" xml:space="preserve">
<style type="text/css">
	.st0{fill:#81A036;}
</style>
<path class="st0" d="M14,2C8.4,2,3.7,3.7,3.7,3.7C3.2,3.8,2.9,4.3,3,4.8c0,0,0.6,3.7,2.5,7.5c0.9,1.9,2.2,3.8,4,5.2s4,2.5,6.7,2.5
	c2.2,0,3.8-0.4,3.8-0.4c0.5-0.1,0.9-0.7,0.7-1.2s-0.7-0.9-1.2-0.7c0,0-1.2,0.3-3.2,0.3c-2.2,0-4-0.8-5.4-2s-2.6-2.9-3.5-4.7
	c-1.4-2.7-1.9-5-2.1-6C6.3,5,9.6,4,14,4c4.4,0,6.9,1.9,8.1,4.3c1.1,2,1.1,4.5,0.4,6.7c-1.2-1.4-2.6-2.6-3.9-3.7
	c-3.6-2.8-7.2-4.5-7.2-4.5c-0.2-0.1-0.4-0.1-0.6-0.1C10.4,6.8,10,7.2,10,7.6C9.9,8,10.2,8.5,10.6,8.7c0,0,3.4,1.6,6.8,4.2
	s6.6,6.3,6.6,10V25c0,0,0,0.1,0,0.1c0,0.1,0,0.1,0,0.2V26H11c0,0-0.1,0-0.1,0c-0.5,0-0.9,0.5-0.9,1v6c0,0.6,0.4,1,1,1h1.2L15,47.2
	c0.1,0.5,0.5,0.8,1,0.8h18c0.5,0,0.9-0.3,1-0.8L37.8,34H39c0.6,0,1-0.4,1-1v-6c0-0.6-0.4-1-1-1H26v-0.7c0-0.1,0-0.1,0-0.2
	c0-0.1,0-0.1,0-0.2c0.1-1.6,0.8-2.9,1.9-4.2c1.2-1.4,2.8-2.5,4.5-3.5c3.3-1.9,6.7-2.8,6.7-2.8c0.5-0.1,0.9-0.6,0.8-1.2
	s-0.6-0.9-1.2-0.8c-0.1,0-0.1,0-0.2,0c0,0-3.5,1-7.1,3c-0.7,0.4-1.4,0.9-2.1,1.3c0.1-0.8,0.3-1.7,0.7-2.7C31,12,32.7,10,37,10
	s6.9,0.9,7.8,1.2c-0.2,0.9-0.7,2.6-1.8,4.6c-1.6,2.7-4,5.2-8.1,5.2c-2.4,0-4-0.8-4-0.8c-0.3-0.2-0.7-0.1-1,0.1
	c-0.3,0.2-0.5,0.6-0.4,0.9s0.3,0.7,0.6,0.8c0,0,2,0.9,4.8,0.9c5,0,8.1-3.2,9.8-6.2s2.3-6,2.3-6c0.1-0.4-0.1-0.9-0.6-1.1
	c0,0-3.8-1.7-9.4-1.7c-5,0-7.7,2.8-8.8,5.4s-1,5.2-1,5.2c0,0,0,0,0,0c-0.3,0.3-0.5,0.5-0.8,0.8c-0.3,0.3-0.5,0.6-0.8,1
	c-0.3-1.3-0.9-2.5-1.7-3.6c1.4-2.9,1.4-6.5-0.1-9.5C22.3,4.3,19,2,14,2z M12,28h26v4H12V28z M14.2,34h21.6l-2.6,12H16.8L14.2,34z"/>
</svg>
